<svg width="583" height="355" viewBox="0 0 583 355" fill="none" xmlns="http://www.w3.org/2000/svg">
<rect width="583" height="355" fill="white"/>
<line x1="197.404" y1="72.5329" x2="258.404" y2="82.5329" stroke="#A5A5A5" stroke-width="5"/>
<line x1="286.5" y1="166" x2="286.5" y2="199" stroke="#A5A5A5" stroke-width="5"/>
<mask id="path-3-inside-1" fill="white">
<rect x="11" y="21" width="189" height="54" rx="2"/>
</mask>
<rect x="11" y="21" width="189" height="54" rx="2" stroke="black" stroke-width="8" mask="url(#path-3-inside-1)"/>
<path d="M334.994 75.0282V161.837C334.994 162.991 334.516 164.036 333.771 164.779C333.02 165.529 331.979 166 330.823 166H249.171C248.015 166 246.967 165.523 246.223 164.779C245.472 164.03 245 162.991 245 161.837V54.1633C245 53.0092 245.478 51.9638 246.223 51.2206C246.973 50.4713 248.015 50 249.171 50H309.871H310.028C310.573 50 311.069 50.2478 311.414 50.6345L334.364 73.6805C334.752 74.0189 335 74.4963 335 75.0643L334.994 75.0282ZM331.362 161.837V76.8412H310.022C309.023 76.8412 308.206 76.0254 308.206 75.0283V53.5958H249.164C249.007 53.5958 248.868 53.6622 248.777 53.7529C248.686 53.8435 248.619 53.9764 248.619 54.1396V161.813C248.619 161.97 248.686 162.109 248.777 162.2C248.868 162.29 249.001 162.357 249.164 162.357H330.816C330.974 162.357 331.113 162.29 331.204 162.2C331.295 162.109 331.361 161.976 331.361 161.813L331.362 161.837ZM311.838 56.1991V73.2399H328.819L311.838 56.1991Z" fill="black"/>
<path d="M334.994 224.028V310.837C334.994 311.991 334.516 313.036 333.771 313.779C333.02 314.529 331.979 315 330.823 315H249.171C248.015 315 246.967 314.523 246.223 313.779C245.472 313.03 245 311.991 245 310.837V203.163C245 202.009 245.478 200.964 246.223 200.221C246.973 199.471 248.015 199 249.171 199H309.871H310.028C310.573 199 311.069 199.248 311.414 199.634L334.364 222.68C334.752 223.019 335 223.496 335 224.064L334.994 224.028ZM331.362 310.837V225.841H310.022C309.023 225.841 308.206 225.025 308.206 224.028V202.596H249.164C249.007 202.596 248.868 202.662 248.777 202.753C248.686 202.843 248.619 202.976 248.619 203.14V310.813C248.619 310.97 248.686 311.109 248.777 311.2C248.868 311.29 249.001 311.357 249.164 311.357H330.816C330.974 311.357 331.113 311.29 331.204 311.2C331.295 311.109 331.361 310.976 331.361 310.813L331.362 310.837ZM311.838 205.199V222.24H328.819L311.838 205.199Z" fill="black"/>
<line x1="321.321" y1="127.148" x2="396.321" y2="59.1479" stroke="#A5A5A5" stroke-width="5"/>
<mask id="path-7-inside-2" fill="white">
<rect x="394" y="57" width="179" height="77" rx="2"/>
</mask>
<rect x="394" y="57" width="179" height="77" rx="2" stroke="black" stroke-width="8" mask="url(#path-7-inside-2)"/>
<mask id="path-8-inside-3" fill="white">
<rect x="255" y="125" width="70" height="30" rx="2"/>
</mask>
<rect x="255" y="125" width="70" height="30" rx="2" stroke="black" stroke-width="8" mask="url(#path-8-inside-3)"/>
<mask id="path-9-inside-4" fill="white">
<rect x="255" y="80" width="70" height="20" rx="2"/>
</mask>
<rect x="255" y="80" width="70" height="20" rx="2" stroke="black" stroke-width="8" mask="url(#path-9-inside-4)"/>
<path d="M259.47 116.582C258.415 116.286 257.888 115.605 257.888 114.539V113.668C257.888 113.077 257.65 112.781 257.176 112.781V111.783C257.65 111.783 257.888 111.486 257.888 110.891V109.968C257.896 109.441 258.033 109.015 258.296 108.689C258.563 108.364 258.954 108.128 259.47 107.982L259.747 108.755C259.377 108.896 259.186 109.29 259.171 109.938V110.891C259.171 111.547 258.9 112.01 258.358 112.28C258.9 112.549 259.171 113.014 259.171 113.673V114.622C259.186 115.27 259.377 115.664 259.747 115.804L259.47 116.582ZM262.396 116.582C261.342 116.286 260.814 115.605 260.814 114.539V113.668C260.814 113.077 260.577 112.781 260.103 112.781V111.783C260.577 111.783 260.814 111.486 260.814 110.891V109.968C260.823 109.441 260.959 109.015 261.223 108.689C261.49 108.364 261.881 108.128 262.396 107.982L262.673 108.755C262.304 108.896 262.112 109.29 262.098 109.938V110.891C262.098 111.547 261.827 112.01 261.285 112.28C261.827 112.549 262.098 113.014 262.098 113.673V114.622C262.112 115.27 262.304 115.664 262.673 115.804L262.396 116.582ZM269.757 115.804C270.126 115.664 270.318 115.27 270.333 114.622V113.668C270.333 113.009 270.605 112.546 271.15 112.28C270.605 112.013 270.333 111.55 270.333 110.891V109.938C270.318 109.29 270.126 108.896 269.757 108.755L270.034 107.982C270.559 108.128 270.953 108.369 271.216 108.703C271.48 109.034 271.613 109.469 271.616 110.008V110.891C271.616 111.486 271.854 111.783 272.328 111.783V112.781C271.854 112.781 271.616 113.075 271.616 113.664V114.6C271.596 115.631 271.068 116.292 270.034 116.582L269.757 115.804ZM272.684 115.804C273.053 115.664 273.245 115.27 273.26 114.622V113.668C273.26 113.009 273.532 112.546 274.077 112.28C273.532 112.013 273.26 111.55 273.26 110.891V109.938C273.245 109.29 273.053 108.896 272.684 108.755L272.961 107.982C273.485 108.128 273.879 108.369 274.143 108.703C274.407 109.034 274.54 109.469 274.543 110.008V110.891C274.543 111.486 274.78 111.783 275.255 111.783V112.781C274.78 112.781 274.543 113.075 274.543 113.664V114.6C274.522 115.631 273.995 116.292 272.961 116.582L272.684 115.804Z" fill="black"/>
<path d="M286.47 116.582C285.415 116.286 284.888 115.605 284.888 114.539V113.668C284.888 113.077 284.65 112.781 284.176 112.781V111.783C284.65 111.783 284.888 111.486 284.888 110.891V109.968C284.896 109.441 285.033 109.015 285.296 108.689C285.563 108.364 285.954 108.128 286.47 107.982L286.747 108.755C286.377 108.896 286.186 109.29 286.171 109.938V110.891C286.171 111.547 285.9 112.01 285.358 112.28C285.9 112.549 286.171 113.014 286.171 113.673V114.622C286.186 115.27 286.377 115.664 286.747 115.804L286.47 116.582ZM289.396 116.582C288.342 116.286 287.814 115.605 287.814 114.539V113.668C287.814 113.077 287.577 112.781 287.103 112.781V111.783C287.577 111.783 287.814 111.486 287.814 110.891V109.968C287.823 109.441 287.959 109.015 288.223 108.689C288.49 108.364 288.881 108.128 289.396 107.982L289.673 108.755C289.304 108.896 289.112 109.29 289.098 109.938V110.891C289.098 111.547 288.827 112.01 288.285 112.28C288.827 112.549 289.098 113.014 289.098 113.673V114.622C289.112 115.27 289.304 115.664 289.673 115.804L289.396 116.582ZM296.757 115.804C297.126 115.664 297.318 115.27 297.333 114.622V113.668C297.333 113.009 297.605 112.546 298.15 112.28C297.605 112.013 297.333 111.55 297.333 110.891V109.938C297.318 109.29 297.126 108.896 296.757 108.755L297.034 107.982C297.559 108.128 297.953 108.369 298.216 108.703C298.48 109.034 298.613 109.469 298.616 110.008V110.891C298.616 111.486 298.854 111.783 299.328 111.783V112.781C298.854 112.781 298.616 113.075 298.616 113.664V114.6C298.596 115.631 298.068 116.292 297.034 116.582L296.757 115.804ZM299.684 115.804C300.053 115.664 300.245 115.27 300.26 114.622V113.668C300.26 113.009 300.532 112.546 301.077 112.28C300.532 112.013 300.26 111.55 300.26 110.891V109.938C300.245 109.29 300.053 108.896 299.684 108.755L299.961 107.982C300.485 108.128 300.879 108.369 301.143 108.703C301.407 109.034 301.54 109.469 301.543 110.008V110.891C301.543 111.486 301.78 111.783 302.255 111.783V112.781C301.78 112.781 301.543 113.075 301.543 113.664V114.6C301.522 115.631 300.995 116.292 299.961 116.582L299.684 115.804Z" fill="black"/>
<path d="M259.47 71.582C258.415 71.2861 257.888 70.605 257.888 69.5386V68.6685C257.888 68.0767 257.65 67.7808 257.176 67.7808V66.7832C257.65 66.7832 257.888 66.4858 257.888 65.8911V64.9683C257.896 64.4409 258.033 64.0146 258.296 63.6895C258.563 63.3643 258.954 63.1284 259.47 62.9819L259.747 63.7554C259.377 63.896 259.186 64.29 259.171 64.9375V65.8911C259.171 66.5474 258.9 67.0103 258.358 67.2798C258.9 67.5493 259.171 68.0137 259.171 68.6729V69.6221C259.186 70.2695 259.377 70.6636 259.747 70.8042L259.47 71.582ZM262.396 71.582C261.342 71.2861 260.814 70.605 260.814 69.5386V68.6685C260.814 68.0767 260.577 67.7808 260.103 67.7808V66.7832C260.577 66.7832 260.814 66.4858 260.814 65.8911V64.9683C260.823 64.4409 260.959 64.0146 261.223 63.6895C261.49 63.3643 261.881 63.1284 262.396 62.9819L262.673 63.7554C262.304 63.896 262.112 64.29 262.098 64.9375V65.8911C262.098 66.5474 261.827 67.0103 261.285 67.2798C261.827 67.5493 262.098 68.0137 262.098 68.6729V69.6221C262.112 70.2695 262.304 70.6636 262.673 70.8042L262.396 71.582ZM269.757 70.8042C270.126 70.6636 270.318 70.2695 270.333 69.6221V68.6685C270.333 68.0093 270.605 67.5464 271.15 67.2798C270.605 67.0132 270.333 66.5503 270.333 65.8911V64.9375C270.318 64.29 270.126 63.896 269.757 63.7554L270.034 62.9819C270.559 63.1284 270.953 63.3687 271.216 63.7026C271.48 64.0337 271.613 64.4688 271.616 65.0078V65.8911C271.616 66.4858 271.854 66.7832 272.328 66.7832V67.7808C271.854 67.7808 271.616 68.0752 271.616 68.6641V69.6001C271.596 70.6313 271.068 71.292 270.034 71.582L269.757 70.8042ZM272.684 70.8042C273.053 70.6636 273.245 70.2695 273.26 69.6221V68.6685C273.26 68.0093 273.532 67.5464 274.077 67.2798C273.532 67.0132 273.26 66.5503 273.26 65.8911V64.9375C273.245 64.29 273.053 63.896 272.684 63.7554L272.961 62.9819C273.485 63.1284 273.879 63.3687 274.143 63.7026C274.407 64.0337 274.54 64.4688 274.543 65.0078V65.8911C274.543 66.4858 274.78 66.7832 275.255 66.7832V67.7808C274.78 67.7808 274.543 68.0752 274.543 68.6641V69.6001C274.522 70.6313 273.995 71.292 272.961 71.582L272.684 70.8042Z" fill="black"/>
<path d="M74.3765 87.3818V91H71.8057V80.3359H76.061C76.8765 80.3359 77.5967 80.4873 78.2217 80.79C78.8516 81.0879 79.3374 81.5151 79.6792 82.0718C80.0259 82.6235 80.1992 83.251 80.1992 83.9541C80.1992 84.9941 79.8257 85.8267 79.0786 86.4517C78.3364 87.0718 77.3159 87.3818 76.0171 87.3818H74.3765ZM74.3765 85.397H76.061C76.5591 85.397 76.9375 85.2725 77.1963 85.0234C77.46 84.7744 77.5918 84.4229 77.5918 83.9688C77.5918 83.4707 77.4575 83.0728 77.189 82.7749C76.9204 82.4771 76.5542 82.3257 76.0903 82.3208H74.3765V85.397ZM86.3296 89.0078H82.8066L82.1914 91H79.4448L83.356 80.3359H85.7729L89.7134 91H86.9521L86.3296 89.0078ZM83.4219 87.0229H85.7144L84.5645 83.3242L83.4219 87.0229ZM94.4595 87.2354H93.0679V91H90.4971V80.3359H94.6938C95.9585 80.3359 96.9473 80.6167 97.6602 81.1782C98.373 81.7397 98.7295 82.5332 98.7295 83.5586C98.7295 84.3008 98.5781 84.916 98.2754 85.4043C97.9775 85.8926 97.5088 86.2881 96.8691 86.5908L99.0957 90.8901V91H96.3418L94.4595 87.2354ZM93.0679 85.2505H94.6938C95.1821 85.2505 95.5483 85.1235 95.7925 84.8696C96.0415 84.6108 96.166 84.252 96.166 83.793C96.166 83.334 96.0415 82.9751 95.7925 82.7163C95.5435 82.4526 95.1772 82.3208 94.6938 82.3208H93.0679V85.2505ZM108.288 82.3208H105.087V91H102.516V82.3208H99.374V80.3359H108.288V82.3208ZM112.118 91H109.555V80.3359H112.118V91ZM120.094 89.0078H116.571L115.956 91H113.209L117.121 80.3359H119.538L123.478 91H120.717L120.094 89.0078ZM117.187 87.0229H119.479L118.329 83.3242L117.187 87.0229ZM126.833 89.0225H131.308V91H124.262V80.3359H126.833V89.0225Z" fill="black"/>
<path d="M456.376 147.382V151H453.806V140.336H458.061C458.876 140.336 459.597 140.487 460.222 140.79C460.852 141.088 461.337 141.515 461.679 142.072C462.026 142.624 462.199 143.251 462.199 143.954C462.199 144.994 461.826 145.827 461.079 146.452C460.336 147.072 459.316 147.382 458.017 147.382H456.376ZM456.376 145.397H458.061C458.559 145.397 458.938 145.272 459.196 145.023C459.46 144.774 459.592 144.423 459.592 143.969C459.592 143.471 459.458 143.073 459.189 142.775C458.92 142.477 458.554 142.326 458.09 142.321H456.376V145.397ZM468.33 149.008H464.807L464.191 151H461.445L465.356 140.336H467.773L471.713 151H468.952L468.33 149.008ZM465.422 147.023H467.714L466.564 143.324L465.422 147.023ZM476.459 147.235H475.068V151H472.497V140.336H476.694C477.958 140.336 478.947 140.617 479.66 141.178C480.373 141.74 480.729 142.533 480.729 143.559C480.729 144.301 480.578 144.916 480.275 145.404C479.978 145.893 479.509 146.288 478.869 146.591L481.096 150.89V151H478.342L476.459 147.235ZM475.068 145.25H476.694C477.182 145.25 477.548 145.124 477.792 144.87C478.042 144.611 478.166 144.252 478.166 143.793C478.166 143.334 478.042 142.975 477.792 142.716C477.543 142.453 477.177 142.321 476.694 142.321H475.068V145.25ZM490.288 142.321H487.087V151H484.516V142.321H481.374V140.336H490.288V142.321ZM494.118 151H491.555V140.336H494.118V151ZM502.094 149.008H498.571L497.956 151H495.209L499.121 140.336H501.538L505.478 151H502.717L502.094 149.008ZM499.187 147.023H501.479L500.329 143.324L499.187 147.023ZM508.833 149.022H513.308V151H506.262V140.336H508.833V149.022Z" fill="black"/>
<path d="M274.607 341H271.028V334.766H265.727V341H262.128V326.07H265.727V331.997H271.028V326.07H274.607V341ZM288.306 328.849H283.825V341H280.226V328.849H275.827V326.07H288.306V328.849ZM294.561 326.07L297.894 336.458L301.216 326.07H305.953V341H302.344V337.514L302.692 330.377L299.083 341H296.704L293.084 330.367L293.433 337.514V341H289.834V326.07H294.561ZM311.849 338.231H318.114V341H308.25V326.07H311.849V338.231Z" fill="black"/>
<path d="M27.3906 46.8125C25.5156 46.2865 24.5781 45.0755 24.5781 43.1797V41.6328C24.5781 40.5807 24.1562 40.0547 23.3125 40.0547V38.2812C24.1562 38.2812 24.5781 37.7526 24.5781 36.6953V35.0547C24.5938 34.1172 24.8359 33.3594 25.3047 32.7812C25.7786 32.2031 26.474 31.7839 27.3906 31.5234L27.8828 32.8984C27.2266 33.1484 26.8854 33.849 26.8594 35V36.6953C26.8594 37.862 26.3776 38.6849 25.4141 39.1641C26.3776 39.6432 26.8594 40.4688 26.8594 41.6406V43.3281C26.8854 44.4792 27.2266 45.1797 27.8828 45.4297L27.3906 46.8125ZM32.5938 46.8125C30.7188 46.2865 29.7812 45.0755 29.7812 43.1797V41.6328C29.7812 40.5807 29.3594 40.0547 28.5156 40.0547V38.2812C29.3594 38.2812 29.7812 37.7526 29.7812 36.6953V35.0547C29.7969 34.1172 30.0391 33.3594 30.5078 32.7812C30.9818 32.2031 31.6771 31.7839 32.5938 31.5234L33.0859 32.8984C32.4297 33.1484 32.0885 33.849 32.0625 35V36.6953C32.0625 37.862 31.5807 38.6849 30.6172 39.1641C31.5807 39.6432 32.0625 40.4688 32.0625 41.6406V43.3281C32.0885 44.4792 32.4297 45.1797 33.0859 45.4297L32.5938 46.8125ZM45.6797 45.4297C46.3359 45.1797 46.6771 44.4792 46.7031 43.3281V41.6328C46.7031 40.4609 47.1875 39.638 48.1562 39.1641C47.1875 38.6901 46.7031 37.8672 46.7031 36.6953V35C46.6771 33.849 46.3359 33.1484 45.6797 32.8984L46.1719 31.5234C47.1042 31.7839 47.8047 32.2109 48.2734 32.8047C48.7422 33.3932 48.9792 34.1667 48.9844 35.125V36.6953C48.9844 37.7526 49.4062 38.2812 50.25 38.2812V40.0547C49.4062 40.0547 48.9844 40.5781 48.9844 41.625V43.2891C48.9479 45.1224 48.0104 46.2969 46.1719 46.8125L45.6797 45.4297ZM50.8828 45.4297C51.5391 45.1797 51.8802 44.4792 51.9062 43.3281V41.6328C51.9062 40.4609 52.3906 39.638 53.3594 39.1641C52.3906 38.6901 51.9062 37.8672 51.9062 36.6953V35C51.8802 33.849 51.5391 33.1484 50.8828 32.8984L51.375 31.5234C52.3073 31.7839 53.0078 32.2109 53.4766 32.8047C53.9453 33.3932 54.1823 34.1667 54.1875 35.125V36.6953C54.1875 37.7526 54.6094 38.2812 55.4531 38.2812V40.0547C54.6094 40.0547 54.1875 40.5781 54.1875 41.625V43.2891C54.151 45.1224 53.2135 46.2969 51.375 46.8125L50.8828 45.4297Z" fill="black"/>
<path d="M80.3906 65.8125C78.5156 65.2865 77.5781 64.0755 77.5781 62.1797V60.6328C77.5781 59.5807 77.1562 59.0547 76.3125 59.0547V57.2812C77.1562 57.2812 77.5781 56.7526 77.5781 55.6953V54.0547C77.5938 53.1172 77.8359 52.3594 78.3047 51.7812C78.7786 51.2031 79.474 50.7839 80.3906 50.5234L80.8828 51.8984C80.2266 52.1484 79.8854 52.849 79.8594 54V55.6953C79.8594 56.862 79.3776 57.6849 78.4141 58.1641C79.3776 58.6432 79.8594 59.4688 79.8594 60.6406V62.3281C79.8854 63.4792 80.2266 64.1797 80.8828 64.4297L80.3906 65.8125ZM85.5938 65.8125C83.7188 65.2865 82.7812 64.0755 82.7812 62.1797V60.6328C82.7812 59.5807 82.3594 59.0547 81.5156 59.0547V57.2812C82.3594 57.2812 82.7812 56.7526 82.7812 55.6953V54.0547C82.7969 53.1172 83.0391 52.3594 83.5078 51.7812C83.9818 51.2031 84.6771 50.7839 85.5938 50.5234L86.0859 51.8984C85.4297 52.1484 85.0885 52.849 85.0625 54V55.6953C85.0625 56.862 84.5807 57.6849 83.6172 58.1641C84.5807 58.6432 85.0625 59.4688 85.0625 60.6406V62.3281C85.0885 63.4792 85.4297 64.1797 86.0859 64.4297L85.5938 65.8125ZM98.6797 64.4297C99.3359 64.1797 99.6771 63.4792 99.7031 62.3281V60.6328C99.7031 59.4609 100.188 58.638 101.156 58.1641C100.188 57.6901 99.7031 56.8672 99.7031 55.6953V54C99.6771 52.849 99.3359 52.1484 98.6797 51.8984L99.1719 50.5234C100.104 50.7839 100.805 51.2109 101.273 51.8047C101.742 52.3932 101.979 53.1667 101.984 54.125V55.6953C101.984 56.7526 102.406 57.2812 103.25 57.2812V59.0547C102.406 59.0547 101.984 59.5781 101.984 60.625V62.2891C101.948 64.1224 101.01 65.2969 99.1719 65.8125L98.6797 64.4297ZM103.883 64.4297C104.539 64.1797 104.88 63.4792 104.906 62.3281V60.6328C104.906 59.4609 105.391 58.638 106.359 58.1641C105.391 57.6901 104.906 56.8672 104.906 55.6953V54C104.88 52.849 104.539 52.1484 103.883 51.8984L104.375 50.5234C105.307 50.7839 106.008 51.2109 106.477 51.8047C106.945 52.3932 107.182 53.1667 107.188 54.125V55.6953C107.188 56.7526 107.609 57.2812 108.453 57.2812V59.0547C107.609 59.0547 107.188 59.5781 107.188 60.625V62.2891C107.151 64.1224 106.214 65.2969 104.375 65.8125L103.883 64.4297Z" fill="black"/>
<path d="M174.391 110.812C172.516 110.286 171.578 109.076 171.578 107.18V105.633C171.578 104.581 171.156 104.055 170.312 104.055V102.281C171.156 102.281 171.578 101.753 171.578 100.695V99.0547C171.594 98.1172 171.836 97.3594 172.305 96.7812C172.779 96.2031 173.474 95.7839 174.391 95.5234L174.883 96.8984C174.227 97.1484 173.885 97.849 173.859 99V100.695C173.859 101.862 173.378 102.685 172.414 103.164C173.378 103.643 173.859 104.469 173.859 105.641V107.328C173.885 108.479 174.227 109.18 174.883 109.43L174.391 110.812ZM179.594 110.812C177.719 110.286 176.781 109.076 176.781 107.18V105.633C176.781 104.581 176.359 104.055 175.516 104.055V102.281C176.359 102.281 176.781 101.753 176.781 100.695V99.0547C176.797 98.1172 177.039 97.3594 177.508 96.7812C177.982 96.2031 178.677 95.7839 179.594 95.5234L180.086 96.8984C179.43 97.1484 179.089 97.849 179.062 99V100.695C179.062 101.862 178.581 102.685 177.617 103.164C178.581 103.643 179.062 104.469 179.062 105.641V107.328C179.089 108.479 179.43 109.18 180.086 109.43L179.594 110.812ZM184.797 103.711C184.797 102.372 185.086 101.318 185.664 100.547C186.242 99.776 187.049 99.3906 188.086 99.3906C188.841 99.3906 189.477 99.6875 189.992 100.281V96H192.633V108H190.266L190.133 107.094C189.591 107.802 188.904 108.156 188.07 108.156C187.065 108.156 186.268 107.771 185.68 107C185.091 106.229 184.797 105.133 184.797 103.711ZM187.43 103.875C187.43 105.375 187.867 106.125 188.742 106.125C189.326 106.125 189.742 105.88 189.992 105.391V102.172C189.753 101.672 189.341 101.422 188.758 101.422C187.945 101.422 187.505 102.078 187.438 103.391L187.43 103.875ZM198.891 108C198.797 107.828 198.714 107.576 198.641 107.242C198.156 107.852 197.479 108.156 196.609 108.156C195.812 108.156 195.135 107.917 194.578 107.438C194.021 106.953 193.742 106.346 193.742 105.617C193.742 104.701 194.081 104.008 194.758 103.539C195.435 103.07 196.419 102.836 197.711 102.836H198.523V102.391C198.523 101.615 198.188 101.227 197.516 101.227C196.891 101.227 196.578 101.534 196.578 102.148H193.945C193.945 101.331 194.292 100.667 194.984 100.156C195.682 99.6458 196.57 99.3906 197.648 99.3906C198.727 99.3906 199.578 99.6536 200.203 100.18C200.828 100.706 201.148 101.427 201.164 102.344V106.086C201.174 106.862 201.294 107.456 201.523 107.867V108H198.891ZM197.242 106.281C197.57 106.281 197.841 106.211 198.055 106.07C198.273 105.93 198.43 105.771 198.523 105.594V104.242H197.758C196.841 104.242 196.383 104.654 196.383 105.477C196.383 105.716 196.464 105.911 196.625 106.062C196.786 106.208 196.992 106.281 197.242 106.281ZM205.695 97.4453V99.5469H207.086V101.375H205.695V105.242C205.695 105.56 205.753 105.781 205.867 105.906C205.982 106.031 206.208 106.094 206.547 106.094C206.807 106.094 207.026 106.078 207.203 106.047V107.93C206.729 108.081 206.234 108.156 205.719 108.156C204.812 108.156 204.143 107.943 203.711 107.516C203.279 107.089 203.062 106.44 203.062 105.57V101.375H201.984V99.5469H203.062V97.4453H205.695ZM212.891 108C212.797 107.828 212.714 107.576 212.641 107.242C212.156 107.852 211.479 108.156 210.609 108.156C209.812 108.156 209.135 107.917 208.578 107.438C208.021 106.953 207.742 106.346 207.742 105.617C207.742 104.701 208.081 104.008 208.758 103.539C209.435 103.07 210.419 102.836 211.711 102.836H212.523V102.391C212.523 101.615 212.188 101.227 211.516 101.227C210.891 101.227 210.578 101.534 210.578 102.148H207.945C207.945 101.331 208.292 100.667 208.984 100.156C209.682 99.6458 210.57 99.3906 211.648 99.3906C212.727 99.3906 213.578 99.6536 214.203 100.18C214.828 100.706 215.148 101.427 215.164 102.344V106.086C215.174 106.862 215.294 107.456 215.523 107.867V108H212.891ZM211.242 106.281C211.57 106.281 211.841 106.211 212.055 106.07C212.273 105.93 212.43 105.771 212.523 105.594V104.242H211.758C210.841 104.242 210.383 104.654 210.383 105.477C210.383 105.716 210.464 105.911 210.625 106.062C210.786 106.208 210.992 106.281 211.242 106.281ZM220.195 109.43C220.852 109.18 221.193 108.479 221.219 107.328V105.633C221.219 104.461 221.703 103.638 222.672 103.164C221.703 102.69 221.219 101.867 221.219 100.695V99C221.193 97.849 220.852 97.1484 220.195 96.8984L220.688 95.5234C221.62 95.7839 222.32 96.2109 222.789 96.8047C223.258 97.3932 223.495 98.1667 223.5 99.125V100.695C223.5 101.753 223.922 102.281 224.766 102.281V104.055C223.922 104.055 223.5 104.578 223.5 105.625V107.289C223.464 109.122 222.526 110.297 220.688 110.812L220.195 109.43ZM225.398 109.43C226.055 109.18 226.396 108.479 226.422 107.328V105.633C226.422 104.461 226.906 103.638 227.875 103.164C226.906 102.69 226.422 101.867 226.422 100.695V99C226.396 97.849 226.055 97.1484 225.398 96.8984L225.891 95.5234C226.823 95.7839 227.523 96.2109 227.992 96.8047C228.461 97.3932 228.698 98.1667 228.703 99.125V100.695C228.703 101.753 229.125 102.281 229.969 102.281V104.055C229.125 104.055 228.703 104.578 228.703 105.625V107.289C228.667 109.122 227.729 110.297 225.891 110.812L225.398 109.43Z" fill="#A5A5A5"/>
<path d="M151.391 46.8125C149.516 46.2865 148.578 45.0755 148.578 43.1797V41.6328C148.578 40.5807 148.156 40.0547 147.312 40.0547V38.2812C148.156 38.2812 148.578 37.7526 148.578 36.6953V35.0547C148.594 34.1172 148.836 33.3594 149.305 32.7812C149.779 32.2031 150.474 31.7839 151.391 31.5234L151.883 32.8984C151.227 33.1484 150.885 33.849 150.859 35V36.6953C150.859 37.862 150.378 38.6849 149.414 39.1641C150.378 39.6432 150.859 40.4688 150.859 41.6406V43.3281C150.885 44.4792 151.227 45.1797 151.883 45.4297L151.391 46.8125ZM156.594 46.8125C154.719 46.2865 153.781 45.0755 153.781 43.1797V41.6328C153.781 40.5807 153.359 40.0547 152.516 40.0547V38.2812C153.359 38.2812 153.781 37.7526 153.781 36.6953V35.0547C153.797 34.1172 154.039 33.3594 154.508 32.7812C154.982 32.2031 155.677 31.7839 156.594 31.5234L157.086 32.8984C156.43 33.1484 156.089 33.849 156.062 35V36.6953C156.062 37.862 155.581 38.6849 154.617 39.1641C155.581 39.6432 156.062 40.4688 156.062 41.6406V43.3281C156.089 44.4792 156.43 45.1797 157.086 45.4297L156.594 46.8125ZM169.68 45.4297C170.336 45.1797 170.677 44.4792 170.703 43.3281V41.6328C170.703 40.4609 171.188 39.638 172.156 39.1641C171.188 38.6901 170.703 37.8672 170.703 36.6953V35C170.677 33.849 170.336 33.1484 169.68 32.8984L170.172 31.5234C171.104 31.7839 171.805 32.2109 172.273 32.8047C172.742 33.3932 172.979 34.1667 172.984 35.125V36.6953C172.984 37.7526 173.406 38.2812 174.25 38.2812V40.0547C173.406 40.0547 172.984 40.5781 172.984 41.625V43.2891C172.948 45.1224 172.01 46.2969 170.172 46.8125L169.68 45.4297ZM174.883 45.4297C175.539 45.1797 175.88 44.4792 175.906 43.3281V41.6328C175.906 40.4609 176.391 39.638 177.359 39.1641C176.391 38.6901 175.906 37.8672 175.906 36.6953V35C175.88 33.849 175.539 33.1484 174.883 32.8984L175.375 31.5234C176.307 31.7839 177.008 32.2109 177.477 32.8047C177.945 33.3932 178.182 34.1667 178.188 35.125V36.6953C178.188 37.7526 178.609 38.2812 179.453 38.2812V40.0547C178.609 40.0547 178.188 40.5781 178.188 41.625V43.2891C178.151 45.1224 177.214 46.2969 175.375 46.8125L174.883 45.4297Z" fill="black"/>
<path d="M415.391 84.8125C413.516 84.2865 412.578 83.0755 412.578 81.1797V79.6328C412.578 78.5807 412.156 78.0547 411.312 78.0547V76.2812C412.156 76.2812 412.578 75.7526 412.578 74.6953V73.0547C412.594 72.1172 412.836 71.3594 413.305 70.7812C413.779 70.2031 414.474 69.7839 415.391 69.5234L415.883 70.8984C415.227 71.1484 414.885 71.849 414.859 73V74.6953C414.859 75.862 414.378 76.6849 413.414 77.1641C414.378 77.6432 414.859 78.4688 414.859 79.6406V81.3281C414.885 82.4792 415.227 83.1797 415.883 83.4297L415.391 84.8125ZM420.594 84.8125C418.719 84.2865 417.781 83.0755 417.781 81.1797V79.6328C417.781 78.5807 417.359 78.0547 416.516 78.0547V76.2812C417.359 76.2812 417.781 75.7526 417.781 74.6953V73.0547C417.797 72.1172 418.039 71.3594 418.508 70.7812C418.982 70.2031 419.677 69.7839 420.594 69.5234L421.086 70.8984C420.43 71.1484 420.089 71.849 420.062 73V74.6953C420.062 75.862 419.581 76.6849 418.617 77.1641C419.581 77.6432 420.062 78.4688 420.062 79.6406V81.3281C420.089 82.4792 420.43 83.1797 421.086 83.4297L420.594 84.8125ZM433.68 83.4297C434.336 83.1797 434.677 82.4792 434.703 81.3281V79.6328C434.703 78.4609 435.188 77.638 436.156 77.1641C435.188 76.6901 434.703 75.8672 434.703 74.6953V73C434.677 71.849 434.336 71.1484 433.68 70.8984L434.172 69.5234C435.104 69.7839 435.805 70.2109 436.273 70.8047C436.742 71.3932 436.979 72.1667 436.984 73.125V74.6953C436.984 75.7526 437.406 76.2812 438.25 76.2812V78.0547C437.406 78.0547 436.984 78.5781 436.984 79.625V81.2891C436.948 83.1224 436.01 84.2969 434.172 84.8125L433.68 83.4297ZM438.883 83.4297C439.539 83.1797 439.88 82.4792 439.906 81.3281V79.6328C439.906 78.4609 440.391 77.638 441.359 77.1641C440.391 76.6901 439.906 75.8672 439.906 74.6953V73C439.88 71.849 439.539 71.1484 438.883 70.8984L439.375 69.5234C440.307 69.7839 441.008 70.2109 441.477 70.8047C441.945 71.3932 442.182 72.1667 442.188 73.125V74.6953C442.188 75.7526 442.609 76.2812 443.453 76.2812V78.0547C442.609 78.0547 442.188 78.5781 442.188 79.625V81.2891C442.151 83.1224 441.214 84.2969 439.375 84.8125L438.883 83.4297Z" fill="black"/>
<path d="M508.391 110.812C506.516 110.286 505.578 109.076 505.578 107.18V105.633C505.578 104.581 505.156 104.055 504.312 104.055V102.281C505.156 102.281 505.578 101.753 505.578 100.695V99.0547C505.594 98.1172 505.836 97.3594 506.305 96.7812C506.779 96.2031 507.474 95.7839 508.391 95.5234L508.883 96.8984C508.227 97.1484 507.885 97.849 507.859 99V100.695C507.859 101.862 507.378 102.685 506.414 103.164C507.378 103.643 507.859 104.469 507.859 105.641V107.328C507.885 108.479 508.227 109.18 508.883 109.43L508.391 110.812ZM513.594 110.812C511.719 110.286 510.781 109.076 510.781 107.18V105.633C510.781 104.581 510.359 104.055 509.516 104.055V102.281C510.359 102.281 510.781 101.753 510.781 100.695V99.0547C510.797 98.1172 511.039 97.3594 511.508 96.7812C511.982 96.2031 512.677 95.7839 513.594 95.5234L514.086 96.8984C513.43 97.1484 513.089 97.849 513.062 99V100.695C513.062 101.862 512.581 102.685 511.617 103.164C512.581 103.643 513.062 104.469 513.062 105.641V107.328C513.089 108.479 513.43 109.18 514.086 109.43L513.594 110.812ZM526.68 109.43C527.336 109.18 527.677 108.479 527.703 107.328V105.633C527.703 104.461 528.188 103.638 529.156 103.164C528.188 102.69 527.703 101.867 527.703 100.695V99C527.677 97.849 527.336 97.1484 526.68 96.8984L527.172 95.5234C528.104 95.7839 528.805 96.2109 529.273 96.8047C529.742 97.3932 529.979 98.1667 529.984 99.125V100.695C529.984 101.753 530.406 102.281 531.25 102.281V104.055C530.406 104.055 529.984 104.578 529.984 105.625V107.289C529.948 109.122 529.01 110.297 527.172 110.812L526.68 109.43ZM531.883 109.43C532.539 109.18 532.88 108.479 532.906 107.328V105.633C532.906 104.461 533.391 103.638 534.359 103.164C533.391 102.69 532.906 101.867 532.906 100.695V99C532.88 97.849 532.539 97.1484 531.883 96.8984L532.375 95.5234C533.307 95.7839 534.008 96.2109 534.477 96.8047C534.945 97.3932 535.182 98.1667 535.188 99.125V100.695C535.188 101.753 535.609 102.281 536.453 102.281V104.055C535.609 104.055 535.188 104.578 535.188 105.625V107.289C535.151 109.122 534.214 110.297 532.375 110.812L531.883 109.43Z" fill="black"/>
<path d="M266.927 260.755L272.536 262.642V265.79L263.472 262.099V259.371L272.536 255.68V258.817L266.927 260.755ZM280.421 260.725L274.843 258.828V255.69L283.856 259.381V262.109L274.843 265.8V262.663L280.421 260.725Z" fill="black"/>
<path d="M290.927 260.755L296.536 262.642V265.79L287.472 262.099V259.371L296.536 255.68V258.817L290.927 260.755ZM299.858 268.282H297.408L302.504 252.07H304.965L299.858 268.282ZM311.804 260.725L306.226 258.828V255.69L315.239 259.381V262.109L306.226 265.8V262.663L311.804 260.725Z" fill="black"/>
</svg>
