<?xml version="1.0" encoding="UTF-8"?>
<svg width="1194px" height="1034px" viewBox="0 0 1194 1034" version="1.1" xmlns="http://www.w3.org/2000/svg" xmlns:xlink="http://www.w3.org/1999/xlink">
    <!-- Generator: Sketch 52.6 (67491) - http://www.bohemiancoding.com/sketch -->
    <title>CREATE WORK PLAN-01</title>
    <desc>Created with Sketch.</desc>
    <g id="Page-1" stroke="none" stroke-width="1" fill="none" fill-rule="evenodd">
        <g id="Artboard" transform="translate(-3432.000000, -3409.000000)">
            <g id="CREATE-WORK-PLAN-01" transform="translate(3432.000000, 3409.000000)">
                <g id="bg">
                    <path d="M239.174686,937.901272 L107.218536,937.901272 C101.337397,937.90123 96.3464014,933.587838 95.4950209,927.769404 L62.4476987,702.004412 C61.9467957,698.598075 62.9527426,695.142362 65.2036708,692.536866 C67.4545989,689.931371 70.7278077,688.433873 74.1712134,688.434203 L206.144017,688.434203 C212.028315,688.430111 217.024021,692.74451 217.875858,698.566071 L250.906527,924.339388 C251.404978,927.745854 250.396745,931.200632 248.14426,933.804481 C245.891776,936.40833 242.617863,937.903667 239.174686,937.901272 Z" id="Path" fill="#F0F0F0"></path>
                    <path d="M122.913724,937.901272 L60.6991632,937.901272 C54.8166942,937.904806 49.8236829,933.589672 48.9756485,927.769404 L15.9449791,702.004412 C15.444076,698.598075 16.4500229,695.142362 18.7009511,692.536866 C20.9518792,689.931371 24.225088,688.433873 27.6684937,688.434203 L89.9246862,688.434203 C95.7791954,688.470701 100.730645,692.774368 101.58159,698.566071 L134.612259,924.339388 C135.109876,927.740106 134.105914,931.189281 131.860888,933.791896 C129.615862,936.394511 126.351084,937.894003 122.913724,937.901272 Z" id="Path" fill="#FAFAFA"></path>
                    <path d="M910.5041,631.214541 L269.132929,631.214541 C252.838243,631.214541 238.508577,643.427729 237.109749,658.49649 L220.973264,832.81124 C219.574435,847.871675 231.647657,860.084863 247.934017,860.084863 L889.305188,860.084863 C905.599874,860.084863 919.92954,847.871675 921.328368,832.81124 L937.47318,658.529791 C938.863682,643.427729 926.79046,631.214541 910.5041,631.214541 Z" id="Path" fill="#E1E1E1"></path>
                    <path d="M866.965565,631.214541 L225.594393,631.214541 C209.308033,631.214541 194.970042,643.427729 193.57954,658.49649 L177.434728,832.81124 C176.0359,847.871675 188.109121,860.084863 204.403808,860.084863 L845.774979,860.084863 C862.061339,860.084863 876.399331,847.871675 877.789833,832.81124 L893.934644,658.529791 C895.325146,643.427729 883.251925,631.214541 866.965565,631.214541 Z" id="Path" fill="#E7E7E7"></path>
                    <path d="M241.575223,747.442311 L327.897832,747.442311 C331.868759,747.442311 335.087832,750.661384 335.087832,754.632311 L335.087832,1020.46762 C335.087832,1024.43855 331.868759,1027.65762 327.897832,1027.65762 L241.575223,1027.65762 C237.604295,1027.65762 234.385223,1024.43855 234.385223,1020.46762 L234.385223,754.632311 C234.385223,750.661384 237.604295,747.442311 241.575223,747.442311 Z" id="Rectangle" fill="#ECECEC" transform="translate(284.736527, 887.549968) rotate(90.000000) translate(-284.736527, -887.549968) "></path>
                    <path d="M608.798821,728.899508 L696.34143,728.899508 C699.975464,728.899508 702.92143,731.845474 702.92143,735.479508 L702.92143,1039.62043 C702.92143,1043.25446 699.975464,1046.20043 696.34143,1046.20043 L608.798821,1046.20043 C605.164788,1046.20043 602.218821,1043.25446 602.218821,1039.62043 L602.218821,735.479508 C602.218821,731.845474 605.164788,728.899508 608.798821,728.899508 Z" id="Rectangle" fill="#E1E1E1" transform="translate(652.570126, 887.549968) rotate(90.000000) translate(-652.570126, -887.549968) "></path>
                    <path d="M539.715014,728.899508 L627.257622,728.899508 C630.891656,728.899508 633.837622,731.845474 633.837622,735.479508 L633.837622,1039.62043 C633.837622,1043.25446 630.891656,1046.20043 627.257622,1046.20043 L539.715014,1046.20043 C536.08098,1046.20043 533.135014,1043.25446 533.135014,1039.62043 L533.135014,735.479508 C533.135014,731.845474 536.08098,728.899508 539.715014,728.899508 Z" id="Rectangle" fill="#ECECEC" transform="translate(583.486318, 887.549968) rotate(90.000000) translate(-583.486318, -887.549968) "></path>
                    <path d="M908.730586,937.901272 L810.57113,937.901272 C803.343849,937.901272 798.614477,931.490805 800.579498,924.339388 L862.40272,698.566071 C864.056168,692.701847 869.333692,688.595763 875.425146,688.434203 L973.592929,688.434203 C980.820209,688.434203 985.541255,694.852995 983.584561,702.004412 L921.728033,927.769404 C920.079678,933.626592 914.813661,937.731597 908.730586,937.901272 Z" id="Path" fill="#F0F0F0"></path>
                    <path d="M826.266318,937.901272 L764.043431,937.901272 C756.816151,937.901272 752.095105,931.490805 754.051799,924.339388 L815.875021,698.566071 C817.525208,692.703142 822.799824,688.596696 828.889121,688.434203 L891.112008,688.434203 C898.339289,688.434203 903.068661,694.852995 901.10364,702.004412 L839.297071,927.769404 C837.645058,933.638083 832.361836,937.745974 826.266318,937.901272 Z" id="Path" fill="#FAFAFA"></path>
                    <polygon id="Path" fill="#E1E1E1" points="774.209916 999.2919 764.767824 999.2919 742.136778 937.901272 765.525523 937.901272"></polygon>
                    <polygon id="Path" fill="#E1E1E1" points="894.042887 999.2919 884.600795 999.2919 861.969749 937.901272 885.36682 937.901272"></polygon>
                    <polygon id="Path" fill="#E1E1E1" points="212.871715 999.2919 222.313808 999.2919 244.944854 937.901272 221.556109 937.901272"></polygon>
                    <polygon id="Path" fill="#E1E1E1" points="93.0387448 999.2919 102.480837 999.2919 125.111883 937.901272 101.714812 937.901272"></polygon>
                    <rect id="Rectangle" fill="#E1E1E1" x="475.293598" y="0.374637681" width="716.191841" height="255.41132"></rect>
                    <rect id="Rectangle" fill="#F0F0F0" x="468.732427" y="0.374637681" width="716.191841" height="255.41132"></rect>
                    <polygon id="Rectangle" fill="#FAFAFA" transform="translate(826.824184, 128.076135) rotate(90.000000) translate(-826.824184, -128.076135) " points="720.601914 -208.533614 933.046455 -208.533614 933.046455 464.685884 720.601914 464.685884"></polygon>
                    <ellipse id="Oval" fill="#F0F0F0" cx="826.824184" cy="128.076135" rx="63.7133054" ry="63.7050564"></ellipse>
                    <polygon id="Path" fill="#FFFFFF" points="599.497908 234.298406 644.11887 21.8538647 742.594728 21.8538647 697.973766 234.298406"></polygon>
                    <polygon id="Path" fill="#FFFFFF" points="739.530628 234.298406 784.15159 21.8538647 833.385356 21.8538647 788.77272 234.298406"></polygon>
                    <polygon id="Path" fill="#FFFFFF" points="1040.17883 234.298406 1084.79146 21.8538647 1134.03356 21.8538647 1089.41259 234.298406"></polygon>
                    <polygon id="Path" fill="#D3D5D7" points="141.115146 1011.72987 50.8490795 1011.72987 38.8258159 835.791691 153.854477 835.791691"></polygon>
                    <path d="M71.8981172,797.195684 C71.8981172,797.195684 86.2194561,726.430789 57.5851046,697.80847 C28.9507531,669.186151 12.6227615,658.95438 12.6227615,658.95438 C12.6227615,658.95438 -40.5826778,744.02211 71.8981172,797.195684 Z" id="Path" fill="#EBECF0"></path>
                    <path d="M78.442636,599.786602 C78.442636,599.786602 92.7639749,529.021707 64.1296234,500.407713 C35.495272,471.79372 19.1672803,461.545298 19.1672803,461.545298 C19.1672803,461.545298 -34.038159,546.621353 78.442636,599.786602 Z" id="Path" fill="#EBECF0"></path>
                    <path d="M89.0920502,484.722882 C89.0920502,484.722882 101.631548,438.642448 77.909749,412.467762 C54.1879498,386.293076 28.5510879,379.749404 28.5510879,379.749404 C28.5510879,379.749404 25.2705021,452.279259 89.0920502,484.722882 Z" id="Path" fill="#D3D5D7"></path>
                    <path d="M111.98954,759.973349 C111.98954,759.973349 106.261004,657.322625 174.570544,614.405797 C174.570544,614.405797 175.011757,735.430419 111.98954,759.973349 Z" id="Path" fill="#EBECF0"></path>
                    <path d="M95.6865272,698.066554 C95.6865272,698.066554 87.443431,626.627311 35.2621339,605.139758 C35.2621339,605.139758 49.333682,688.625684 95.6865272,698.066554 Z" id="Path" fill="#D3D5D7"></path>
                    <path d="M124.670586,577.158486 C124.670586,577.158486 83.3551883,503.945958 167.209958,449.565217 C167.209958,449.565217 199.391339,541.143317 124.670586,577.158486 Z" id="Path" fill="#D3D5D7"></path>
                    <path d="M75.4784519,443.829098 C75.4784519,443.829098 98.6257322,489.08533 98.6257322,558.343349 L98.6257322,661.410338" id="Path" stroke="#D3D5D7" stroke-width="2" stroke-linecap="round"></path>
                    <path d="M54.4460669,545.256006 C54.4460669,545.256006 73.8131799,579.880853 78.442636,599.786602 C83.0720921,619.692351 87.0520921,683.505636 87.0520921,748.118148 L87.0520921,888.815411" id="Path" stroke="#D3D5D7" stroke-width="2" stroke-linecap="round"></path>
                    <path d="M47.9015481,744.280193 C47.9015481,744.280193 69.5500837,778.913366 71.8981172,797.179034 C74.2461506,815.444702 71.8981172,890.838454 71.8981172,890.838454" id="Path" stroke="#D3D5D7" stroke-width="2" stroke-linecap="round"></path>
                    <path d="M77.4351464,672.249855 C77.4351464,672.249855 90.4492469,688.06789 95.6948536,698.058229 C100.94046,708.048567 105.245188,743.847279 105.245188,759.965024 L105.245188,880.207069" id="Path" stroke="#D3D5D7" stroke-width="2" stroke-linecap="round"></path>
                    <path d="M141.031883,521.945217 C141.031883,521.945217 124.670586,553.847697 124.670586,577.158486 L124.670586,880.198744" id="Path" stroke="#D3D5D7" stroke-width="2" stroke-linecap="round"></path>
                    <rect id="Rectangle" fill="#D3D5D7" x="1020.87833" y="484.839436" width="1.58200837" height="44.9898229"></rect>
                    <rect id="Rectangle" fill="#D3D5D7" x="1090.08703" y="529.829259" width="1.58200837" height="44.9898229"></rect>
                    <rect id="Rectangle" fill="#D3D5D7" x="1042.92653" y="574.819082" width="1.58200837" height="44.9898229"></rect>
                    <rect id="Rectangle" fill="#D3D5D7" x="958.039289" y="529.038357" width="202.61364" height="1.58180354"></rect>
                    <rect id="Rectangle" fill="#D3D5D7" x="936.548954" y="574.02818" width="202.61364" height="1.58180354"></rect>
                    <rect id="Rectangle" fill="#D3D5D7" x="991.244812" y="619.018003" width="202.61364" height="1.58180354"></rect>
                    <rect id="Rectangle" fill="#D3D5D7" x="111.081967" y="42.7170209" width="1.58200837" height="44.9898229"></rect>
                    <rect id="Rectangle" fill="#D3D5D7" x="180.290669" y="87.7068438" width="1.58200837" height="44.9898229"></rect>
                    <rect id="Rectangle" fill="#D3D5D7" x="133.130167" y="132.696667" width="1.58200837" height="44.9898229"></rect>
                    <rect id="Rectangle" fill="#D3D5D7" x="48.2429289" y="86.915942" width="202.61364" height="1.58180354"></rect>
                    <rect id="Rectangle" fill="#D3D5D7" x="26.7525941" y="131.905765" width="202.61364" height="1.58180354"></rect>
                    <rect id="Rectangle" fill="#D3D5D7" x="81.4567782" y="176.895588" width="202.61364" height="1.58180354"></rect>
                    <path d="M296.32682,998.725781 C296.32682,998.725781 1079.4959,995.170886 1108.41335,1012.22939 C1137.33079,1029.28789 194.253975,1035.29042 157.368201,1033.46718 C120.482427,1031.64395 -61.9980753,1024.60908 60.4160669,1008.19163 C182.830209,991.774171 296.32682,998.725781 296.32682,998.725781 Z" id="Path" fill="#D3D5D7"></path>
                </g>
                <g id="chart" transform="translate(343.046025, 80.755233)">
                    <path d="M721.171004,479.76934 L17.4187448,479.76934 C13.8181978,479.79759 10.3680879,478.327334 7.89491051,475.710779 C5.42173314,473.094225 4.14829829,469.567099 4.37966527,465.974348 L28.0848117,34.5748953 C28.6167064,26.9034817 34.9408872,20.9203579 42.6309623,20.8132045 L746.383222,20.8132045 C749.983005,20.7826224 753.433216,22.2509843 755.90667,24.8662527 C758.380125,27.4815212 759.653788,31.0078731 759.422301,34.5998712 L735.717155,465.974348 C735.197916,473.657053 728.871406,479.656864 721.171004,479.76934 Z" id="Path" fill="#0A1658"></path>
                    <path d="M425.135607,94.1506119 L357.109247,94.1506119 C346.352098,94.2489633 336.03918,89.8669899 328.643767,82.0555893 C321.248354,74.2441886 317.437534,63.7079729 318.12523,52.9737681 L318.816318,40.385942 C320.02364,18.4488245 338.991088,0.491191626 360.972678,0.491191626 L428.949079,0.491191626 C439.712268,0.399683541 450.028398,4.78934838 457.424812,12.6080334 C464.821225,20.4267184 468.631162,30.9695973 467.941423,41.7096618 L467.250335,54.2558615 C466.084644,76.1929791 447.125523,94.1506119 425.135607,94.1506119 Z" id="Path" fill="#1A2E35"></path>
                    <polygon id="Path" fill="#1A2E35" points="487.058745 927.394767 465.260335 927.394767 405.260586 10.1068921 427.058996 10.1068921"></polygon>
                    <polygon id="Path" fill="#1A2E35" points="323.462427 927.394767 345.25251 927.394767 405.260586 10.1068921 383.462176 10.1068921"></polygon>
                    <path d="M717.424142,479.76934 L13.6718828,479.76934 C10.0713359,479.79759 6.62122596,478.327334 4.14804859,475.710779 C1.67487122,473.094225 0.401436368,469.567099 0.632803347,465.974348 L24.3379498,34.5748953 C24.8698445,26.9034817 31.1940252,20.9203579 38.8841004,20.8132045 L742.63636,20.8132045 C746.236143,20.7826224 749.686354,22.2509843 752.159808,24.8662527 C754.633263,27.4815212 755.906926,31.0078731 755.675439,34.5998712 L731.970293,465.974348 C731.451054,473.657053 725.124544,479.656864 717.424142,479.76934 Z" id="Path" fill="#303D8B"></path>
                    <path d="M24.8375314,466.548792 C21.9607679,466.578452 19.2020853,465.406636 17.2263091,463.315745 C15.250533,461.224854 14.2368609,458.404527 14.4295816,455.534444 L36.977364,45.023124 C37.3859986,38.8680451 42.4651839,34.0652088 48.6342678,34.0004509 L731.470711,34.0004509 C734.348239,33.973133 737.106815,35.1468476 739.082311,37.239022 C741.057807,39.3311963 742.071253,42.1522905 741.878661,45.023124 L719.330879,455.534444 C718.922006,461.688086 713.841685,466.488368 707.673975,466.548792 L24.8375314,466.548792 Z" id="Path" fill="#0A1658" opacity="0.36"></path>
                    <path d="M711.903766,248.925926 L506.392552,248.925926 C503.947306,248.954913 501.601269,247.960529 499.921816,246.183259 C498.242363,244.405989 497.382419,242.007665 497.549958,239.568309 L507.808033,52.7073591 C507.833815,52.3621035 507.713133,52.0219325 507.475521,51.7700967 C507.237909,51.518261 506.905295,51.3779997 506.559079,51.3836393 C505.821388,51.3951171 505.216227,51.9712141 505.168577,52.7073591 L494.902176,239.60161 C494.554175,244.812839 490.250388,248.876597 485.027113,248.925926 L271.439331,248.925926 C268.994869,248.95239 266.650356,247.957229 264.971462,246.18055 C263.292567,244.403871 262.431762,242.007025 262.596736,239.568309 L272.863138,52.7073591 C272.88892,52.3621035 272.768237,52.0219325 272.530626,51.7700967 C272.293014,51.518261 271.9604,51.3779997 271.614184,51.3836393 C270.873274,51.3908049 270.263264,51.9680609 270.215356,52.7073591 L259.932301,239.60161 C259.584555,244.809677 255.285625,248.872274 250.065565,248.925926 L44.5127197,248.925926 C43.7747634,248.92901 43.1661375,249.504761 43.1222176,250.24132 C43.096436,250.586576 43.2171185,250.926747 43.4547301,251.178583 C43.6923418,251.430419 44.0249561,251.57068 44.3711715,251.56504 L249.91569,251.56504 C252.360937,251.536053 254.706974,252.530437 256.386427,254.307707 C258.06588,256.084977 258.925823,258.483301 258.758285,260.922657 L248.500209,447.816908 C248.474428,448.162164 248.59511,448.502335 248.832722,448.754171 C249.070333,449.006006 249.402948,449.146268 249.749163,449.140628 C250.486854,449.12915 251.092016,448.553053 251.139665,447.816908 L261.447699,260.955958 C261.779037,255.731608 266.087484,251.648921 271.322762,251.598341 L484.927197,251.598341 C487.369563,251.574035 489.711157,252.570465 491.386926,254.347183 C493.062695,256.1239 493.920425,258.519522 493.753138,260.955958 L483.461757,447.816908 C483.435976,448.162164 483.556658,448.502335 483.79427,448.754171 C484.031882,449.006006 484.364496,449.146268 484.710711,449.140628 C485.451621,449.133462 486.061631,448.556206 486.10954,447.816908 L496.375941,260.955958 C496.707035,255.734772 501.010618,251.653253 506.242678,251.598341 L711.795523,251.598341 C712.536514,251.594995 713.146336,251.014461 713.186025,250.274622 C713.220161,249.919285 713.098492,249.566611 712.852512,249.307886 C712.606532,249.049161 712.26042,248.909819 711.903766,248.925926 Z" id="Path" fill="#303D8B"></path>
                    <polygon id="Path" fill="#231F20" opacity="0.22" points="376.801088 85.2841868 294.236904 85.2841868 289.632427 169.244654 372.071715 171.442528"></polygon>
                    <path d="M367.850251,167.837681 L284.986318,163.799919 C289.549835,135.436819 292.427478,106.828132 293.6041,78.1244444 L376.959289,82.1622061 C375.617565,110.875487 372.575891,139.484086 367.850251,167.837681 Z" id="Path" fill="#FFFFFF"></path>
                    <polygon id="Path" fill="#231F20" opacity="0.22" points="476.334393 141.37161 393.670293 147.673849 395.477113 231.384557 478.199498 227.280193"></polygon>
                    <path d="M473.694937,224.016683 L390.431339,226.339436 C392.830981,197.82281 393.520528,169.188089 392.496276,140.589034 L476.267782,138.257955 C477.116796,166.869919 476.257654,195.507047 473.694937,224.016683 Z" id="Path" fill="#FEB701"></path>
                    <path d="M401.280586,157.331176 L466.034686,154.608808" id="Path" stroke="#E0A010" stroke-width="2" stroke-linecap="round"></path>
                    <path d="M401.280586,171.442528 L467.350251,167.837681" id="Path" stroke="#E0A010" stroke-width="2" stroke-linecap="round"></path>
                    <path d="M400.622803,185.229195 L466.692469,181.616023" id="Path" stroke="#E0A010" stroke-width="2" stroke-linecap="round"></path>
                    <path d="M402.404644,199.56533 L445.018954,196.326795" id="Path" stroke="#E0A010" stroke-width="2" stroke-linecap="round"></path>
                    <polygon id="Path" fill="#1A2E35" opacity="0.4" points="234.894937 294.065604 82.4725941 288.246232 68.7923849 423.815121 220.856695 433.197713"></polygon>
                    <path d="M213.288033,427.086957 L60.5576151,414.673961 C70.7144403,369.183048 77.7912517,323.059004 81.7398745,276.615813 L235.361213,289.020483 C231.118659,335.486788 223.744172,381.613783 213.288033,427.086957 Z" id="Path" fill="#FFFFFF"></path>
                    <path d="M78.0179916,104.249179 C75.7826497,104.256215 73.6445687,103.335676 72.11362,101.707083 C70.5826714,100.078491 69.796079,97.887822 69.9414226,95.6574879 C70.2658136,90.8732503 74.205192,87.1371178 79.0005021,87.0657971 C81.2437222,87.0473314 83.3935664,87.9625539 84.9349789,89.5921971 C86.4763915,91.2218403 87.2704912,93.4190737 87.1270293,95.6574879 C86.8049531,100.462488 82.8342159,104.207707 78.0179916,104.249179 Z" id="Path" fill="#FEB701"></path>
                    <path d="M212.696862,104.249179 L106.952092,104.249179 C104.708092,104.270142 102.556742,103.355688 101.014778,101.725462 C99.4728138,100.095236 98.6795658,97.8965421 98.8255649,95.6574879 C99.1579668,90.8737514 103.097667,87.1407445 107.892971,87.0657971 L213.637741,87.0657971 C215.879519,87.0496555 218.02715,87.965894 219.566726,89.5952646 C221.106302,91.2246353 221.899292,93.4205292 221.755941,95.6574879 C221.435431,100.44355 217.493789,104.181829 212.696862,104.249179 Z" id="Path" fill="#E0A010"></path>
                    <path d="M75.9613808,141.721272 C73.7173802,141.742235 71.5660302,140.827781 70.0240664,139.197555 C68.4821025,137.567329 67.6888545,135.368636 67.8348536,133.129581 C68.1633943,128.344024 72.1053454,124.608885 76.9022594,124.53789 C79.145601,124.516755 81.2962456,125.431457 82.8369235,127.061994 C84.3776014,128.692531 85.1688865,130.891345 85.0204603,133.129581 C84.6999498,137.915643 80.7583081,141.653922 75.9613808,141.721272 Z" id="Path" fill="#FEB701"></path>
                    <path d="M229.366234,141.721272 L104.912134,141.721272 C102.668133,141.742235 100.516783,140.827781 98.9748195,139.197555 C97.4328557,137.567329 96.6396076,135.368636 96.7856067,133.129581 C97.1063873,128.340372 101.052867,124.600941 105.853013,124.53789 L230.315439,124.53789 C232.557999,124.519257 234.707133,125.434729 236.247259,127.064681 C237.787384,128.694633 238.579524,130.891984 238.43364,133.129581 C238.11286,137.918791 234.166379,141.658222 229.366234,141.721272 Z" id="Path" fill="#E0A010"></path>
                    <path d="M73.9047699,179.18504 C71.6607694,179.206003 69.5094193,178.29155 67.9674555,176.661323 C66.4254917,175.031097 65.6322436,172.832404 65.7782427,170.593349 C66.1029097,165.805968 70.0471206,162.068687 74.8456485,162.001659 C77.0882078,161.983025 79.2373426,162.898497 80.777468,164.528449 C82.3175934,166.158402 83.1097329,168.355752 82.9638494,170.593349 C82.6433389,175.379411 78.7016973,179.11769 73.9047699,179.18504 Z" id="Path" fill="#FEB701"></path>
                    <path d="M163.413138,179.18504 L102.822218,179.18504 C100.579658,179.203674 98.4305235,178.288202 96.8903981,176.65825 C95.3502727,175.028297 94.5581332,172.830946 94.7040167,170.593349 C95.0286837,165.805968 98.9728947,162.068687 103.771423,162.001659 L164.362343,162.001659 C166.604121,161.985517 168.751753,162.901755 170.291329,164.531126 C171.830904,166.160497 172.623895,168.356391 172.480544,170.593349 C172.159763,175.382559 168.213283,179.12199 163.413138,179.18504 Z" id="Path" fill="#E0A010"></path>
                    <path d="M219.524477,216.657134 L158.933556,216.657134 C156.690215,216.678269 154.53957,215.763567 152.998892,214.13303 C151.458215,212.502493 150.666929,210.303679 150.815356,208.065443 C151.135592,203.282525 155.0724,199.545396 159.866109,199.473752 L220.457029,199.473752 C222.700371,199.452616 224.851015,200.367318 226.391693,201.997855 C227.932371,203.628393 228.723656,205.827207 228.57523,208.065443 C228.254993,212.848361 224.318186,216.58549 219.524477,216.657134 Z" id="Path" fill="#E0A010"></path>
                    <path d="M71.8398326,216.657134 C69.5972734,216.675767 67.4481385,215.760296 65.9080131,214.130343 C64.3678877,212.500391 63.5757483,210.30304 63.7216318,208.065443 C64.0424124,203.276233 67.9888925,199.536802 72.7890377,199.473752 C75.0315969,199.455118 77.1807318,200.37059 78.7208572,202.000542 C80.2609826,203.630495 81.053122,205.827846 80.9072385,208.065443 C80.5864579,212.854652 76.6399778,216.594083 71.8398326,216.657134 Z" id="Path" fill="#FEB701"></path>
                    <path d="M128.750502,216.657134 L100.748954,216.657134 C98.5063947,216.675767 96.3572599,215.760296 94.8171345,214.130343 C93.2770091,212.500391 92.4848696,210.30304 92.6307531,208.065443 C92.9512636,203.279381 96.8929053,199.541102 101.689833,199.473752 L129.674728,199.473752 C131.91807,199.452616 134.068714,200.367318 135.609392,201.997855 C137.15007,203.628393 137.941355,205.827207 137.792929,208.065443 C137.472969,212.84522 133.540992,216.581201 128.750502,216.657134 Z" id="Path" fill="#E0A010"></path>
                    <path d="M329.124351,430.750081 L329.865397,417.246473 C316.213208,422.549846 302.265429,427.05859 288.09205,430.750081 L329.124351,430.750081 Z" id="Path" fill="#E0A010"></path>
                    <path d="M351.480628,430.750081 L392.48795,430.750081 L394.985858,384.844477 C381.481278,393.49744 367.354459,401.138737 352.721255,407.7057 L351.480628,430.750081 Z" id="Path" fill="#E0A010"></path>
                    <path d="M418.316318,367.661095 L414.844226,430.750081 L455.859874,430.750081 L463.353598,294.665024 C459.007238,324.194799 441.122218,348.346441 418.316318,367.661095 Z" id="Path" fill="#E0A010"></path>
                    <path d="M293.753975,328.149308 L288.09205,430.750081 C302.256981,427.057667 316.196395,422.548931 329.840418,417.246473 L334.736318,328.165958 L293.753975,328.149308 Z" id="Path" fill="#FEB701"></path>
                    <path d="M355.960209,349.295523 L352.746234,407.7057 C367.379438,401.138737 381.506258,393.49744 395.010837,384.844477 L396.967531,349.295523 L355.960209,349.295523 Z" id="Path" fill="#FEB701"></path>
                    <path d="M418.316318,367.661095 C441.122218,348.346441 459.007238,324.194799 463.328619,294.665024 L422.321297,294.665024 L418.316318,367.661095 Z" id="Path" fill="#FEB701"></path>
                    <path d="M302.879665,386.043317 C298.821953,386.043317 294.725384,385.935089 290.589958,385.718631 C283.420962,385.352319 274.128745,384.453188 265.777406,380.723462 C264.446134,380.125732 263.851544,378.562106 264.449352,377.231007 C265.047159,375.899907 266.610987,375.305394 267.942259,375.903124 C275.502594,379.299839 284.153682,380.132367 290.856402,380.473704 C340.065188,382.971288 383.145774,370.191981 426.517782,340.154364 C436.850795,332.994622 452.329498,319.749098 461.77159,306.020709 C462.599324,304.818351 464.245164,304.514571 465.447678,305.342198 C466.650191,306.169825 466.95401,307.815452 466.126276,309.01781 C456.251213,323.362271 440.747531,336.7743 429.490293,344.541787 C388.791046,372.68124 348.25,386.043317 302.879665,386.043317 Z" id="Path" fill="#FFFFFF"></path>
                    <path d="M472.237824,326.201192 C471.354735,326.20097 470.529882,325.760559 470.03849,325.026909 C469.547099,324.29326 469.453856,323.36295 469.789874,322.546393 C473.520511,313.527372 474.318667,303.563362 472.071297,294.065604 C461.784325,300.985983 450.80351,306.814687 439.307071,311.457118 C437.952807,312.001972 436.413209,311.345957 435.868285,309.991868 C435.32336,308.637779 435.979459,307.098381 437.333724,306.553527 C449.593724,301.600345 461.246059,295.25957 472.062971,287.655137 C472.745483,287.175493 473.614159,287.045511 474.407204,287.304364 C475.200248,287.563217 475.824908,288.18063 476.092929,288.970531 C479.874207,300.624171 479.372281,313.24449 474.677448,324.561111 C474.272168,325.551926 473.30844,326.199809 472.237824,326.201192 Z" id="Path" fill="#FFFFFF"></path>
                    <path d="M688.190293,225.049018 L535.634728,225.049018 C533.104253,225.053857 530.684532,224.011701 528.94964,222.1698 C527.214749,220.327899 526.319298,217.850401 526.475732,215.325089 L533.561464,86.383124 C533.913104,81.0406663 538.315373,76.867392 543.669665,76.8007246 L696.216904,76.8007246 C698.747379,76.7958853 701.1671,77.8380412 702.901991,79.679942 C704.636883,81.5218429 705.532334,83.9993414 705.3759,86.5246538 L698.290167,215.474944 C697.938544,220.812803 693.539996,224.982363 688.190293,225.049018 Z M543.63636,79.4481643 C539.671396,79.4831145 536.403918,82.5686661 536.142636,86.5246538 L529.056904,215.474944 C528.928515,217.283735 529.564342,219.06351 530.809818,220.381614 C532.055295,221.699717 533.796353,222.43543 535.609749,222.409903 L688.165314,222.409903 C692.133277,222.374641 695.401921,219.284357 695.659038,215.325089 L702.74477,86.383124 C702.873159,84.5743323 702.237332,82.7945573 700.991855,81.4764538 C699.746379,80.1583502 698.005321,79.4226377 696.191925,79.4481643 L543.63636,79.4481643 Z" id="Shape" fill="#8EACCD" fill-rule="nonzero"></path>
                    <path d="M702.628201,113.798277 L533.419916,113.798277 C532.923398,113.837741 532.446746,113.595221 532.186386,113.170657 C531.926026,112.746094 531.926026,112.211346 532.186386,111.786782 C532.446746,111.362219 532.923398,111.119698 533.419916,111.159163 L702.628201,111.159163 C703.124719,111.119698 703.601372,111.362219 703.861731,111.786782 C704.122091,112.211346 704.122091,112.746094 703.861731,113.170657 C703.601372,113.595221 703.124719,113.837741 702.628201,113.798277 Z" id="Path" fill="#8EACCD"></path>
                    <path d="M567.258243,225.049018 L567.183305,225.049018 C566.457145,225.004311 565.901146,224.385379 565.934351,223.658696 L572.020921,112.391304 C572.018487,111.899889 572.288524,111.44757 572.722285,111.216498 C573.156047,110.985425 573.682136,111.013635 574.088694,111.289765 C574.495251,111.565896 574.715359,112.044498 574.660377,112.532834 L568.548828,223.783575 C568.526601,224.482732 567.957791,225.04046 567.258243,225.049018 Z" id="Path" fill="#8EACCD"></path>
                    <path d="M683.244435,127.018824 L591.379707,127.018824 C590.648542,127.018824 590.055816,126.426175 590.055816,125.695105 C590.055816,124.964034 590.648542,124.371385 591.379707,124.371385 L683.244435,124.371385 C683.9756,124.371385 684.568326,124.964034 684.568326,125.695105 C684.568326,126.426175 683.9756,127.018824 683.244435,127.018824 Z" id="Path" fill="#8EACCD"></path>
                    <path d="M669.439331,143.236473 L590.522092,143.236473 C590.025574,143.275938 589.548921,143.033417 589.288562,142.608854 C589.028202,142.18429 589.028202,141.649542 589.288562,141.224979 C589.548921,140.800415 590.025574,140.557895 590.522092,140.597359 L669.439331,140.597359 C669.935849,140.557895 670.412501,140.800415 670.672861,141.224979 C670.93322,141.649542 670.93322,142.18429 670.672861,142.608854 C670.412501,143.033417 669.935849,143.275938 669.439331,143.236473 Z" id="Path" fill="#8EACCD"></path>
                    <path d="M635.501088,159.978615 L589.564561,159.978615 C588.833396,159.978615 588.240669,159.385966 588.240669,158.654895 C588.240669,157.923825 588.833396,157.331176 589.564561,157.331176 L635.501088,157.331176 C636.232253,157.331176 636.824979,157.923825 636.824979,158.654895 C636.824979,159.385966 636.232253,159.978615 635.501088,159.978615 Z" id="Path" fill="#8EACCD"></path>
                    <path d="M643.8441,192.647021 L587.774393,192.647021 C587.277875,192.686485 586.801223,192.443965 586.540863,192.019401 C586.280503,191.594838 586.280503,191.06009 586.540863,190.635526 C586.801223,190.210963 587.277875,189.968442 587.774393,190.007907 L643.8441,190.007907 C644.340618,189.968442 644.817271,190.210963 645.077631,190.635526 C645.33799,191.06009 645.33799,191.594838 645.077631,192.019401 C644.817271,192.443965 644.340618,192.686485 643.8441,192.647021 Z" id="Path" fill="#8EACCD"></path>
                    <path d="M632.803347,209.389163 L586.86682,209.389163 C586.135655,209.389163 585.542929,208.796513 585.542929,208.065443 C585.542929,207.334373 586.135655,206.741723 586.86682,206.741723 L632.803347,206.741723 C633.534512,206.741723 634.127238,207.334373 634.127238,208.065443 C634.127238,208.796513 633.534512,209.389163 632.803347,209.389163 Z" id="Path" fill="#8EACCD"></path>
                    <path d="M659.680837,209.389163 L644.959833,209.389163 C644.228668,209.389163 643.635941,208.796513 643.635941,208.065443 C643.635941,207.334373 644.228668,206.741723 644.959833,206.741723 L659.680837,206.741723 C660.412002,206.741723 661.004728,207.334373 661.004728,208.065443 C661.004728,208.796513 660.412002,209.389163 659.680837,209.389163 Z" id="Path" fill="#8EACCD"></path>
                    <path d="M674.70159,176.196264 L588.67364,176.196264 C588.177122,176.235729 587.700469,175.993208 587.44011,175.568644 C587.17975,175.144081 587.17975,174.609333 587.44011,174.184769 C587.700469,173.760206 588.177122,173.517685 588.67364,173.55715 L674.693264,173.55715 C675.381574,173.611858 675.912246,174.186315 675.912246,174.876707 C675.912246,175.567099 675.381574,176.141556 674.693264,176.196264 L674.70159,176.196264 Z" id="Path" fill="#8EACCD"></path>
                    <path d="M594.502092,412.650918 C574.568787,412.650918 558.240795,406.756618 548.099289,395.800548 C537.275021,384.145153 532.778787,365.721304 535.776276,345.34934 C537.608075,332.861417 541.687992,322.404863 547.899456,314.229436 C554.110921,306.05401 563.145021,299.243929 574.693682,294.132206 C600.172343,282.801498 629.647657,283.201111 653.585941,295.197842 C664.301967,300.575974 671.021339,307.377729 673.569205,315.411626 C673.902376,316.326434 673.7065,317.350269 673.059175,318.077542 C672.41185,318.804815 671.417534,319.118164 670.470124,318.893457 C669.522713,318.668751 668.775093,317.94225 668.523431,317.001755 C666.441841,310.383156 660.621715,304.638712 651.229582,299.926602 C628.74841,288.629195 600.905063,288.271208 576.858536,298.969195 C566.134184,303.731256 557.807824,309.950242 552.120921,317.426345 C546.434017,324.902448 542.728787,334.534799 541.021883,346.115266 C538.265858,364.897101 542.26251,381.69752 551.996025,392.212351 C565.52636,406.823221 587.932594,407.872206 600.080753,407.197858 C622.670167,405.940741 642.095565,398.040048 654.793264,384.986006 C669.64749,369.692464 673.810669,346.822915 664.47682,331.77913 C662.67,328.873607 658.789916,323.895089 653.069707,323.328969 C651.677265,323.116273 650.695125,321.850757 650.834846,320.449289 C650.974568,319.04782 652.187234,318.001062 653.594268,318.067391 C659.505983,318.658486 664.968075,322.538068 668.973054,328.998486 C679.547531,346.032013 675.084603,371.690531 658.590084,388.665781 C644.959833,402.693881 624.285481,411.144042 600.372176,412.476087 C598.382176,412.592641 596.425481,412.650918 594.502092,412.650918 Z" id="Path" fill="#8EACCD"></path>
                </g>
                <g id="man" transform="translate(54.121339, 26.640902)">
                    <polygon id="Path" fill="#231F20" opacity="0.22" points="542.495649 253.413253 466.700795 253.413253 462.471004 330.480386 538.149289 332.50343"></polygon>
                    <path d="M502.654017,303.040258 L426.750921,293.632689 C432.868261,268.091227 437.447657,242.205832 440.464435,216.11599 L516.817155,225.515233 C513.650506,251.616793 508.920968,277.50495 502.654017,303.040258 Z" id="Path" fill="#C9DCF0"></path>
                    <g id="left_arm" transform="translate(19.150628, 175.663446)">
                        <path d="M84.0962343,143.194847 L14.0299163,112.55781 C5.19564854,131.397923 -0.316401674,149.34723 1.03246862,163.342029 C5.58698745,210.671256 65.370251,249.533671 77.8847699,257.167955 C78.7590377,255.83591 79.5916736,254.437262 80.3826778,253.005314 L84.0962343,143.194847 Z" id="Path" fill="#F45658"></path>
                        <path d="M20.0332218,100.536103 C21.3238075,98.1051208 22.6476987,95.6574879 24.0132218,93.2181804 C22.5236529,95.5653247 21.1939737,98.0101714 20.0332218,100.536103 Z" id="Path"></path>
                        <path d="M24.0132218,93.2431562 C22.6476987,95.6824638 21.3238075,98.1300966 20.0332218,100.561079 C19.5401761,101.788245 18.9295051,102.964819 18.209749,104.074348 C16.7554114,106.921594 15.3676848,109.754965 14.046569,112.574461 L84.0962343,143.194847 L88.0262762,28.3808857 C75.0454812,38.9456683 38.9340586,69.4328502 24.0132218,93.2431562 Z" id="Path" fill="#C9E2F4"></path>
                        <path d="M18.209749,104.066023 C18.9295051,102.956494 19.5401761,101.77992 20.0332218,100.552754 C19.4448257,101.723843 18.8370014,102.894933 18.209749,104.066023 Z" id="Path" fill="#ECEDF2"></path>
                        <path d="M24.0132218,93.2431562 C38.9340586,69.4495008 75.0454812,38.9623188 88.0512552,28.3725604 L88.9921339,0.749275362 C88.9921339,0.749275362 50.1413389,46.5466506 24.0132218,93.2431562 Z" id="Path" fill="#FFFFFF"></path>
                    </g>
                    <g id="head" transform="translate(135.719665, 0.000000)">
                        <path d="M97.0270711,56.9033011 C50.9906276,48.8777295 53.3386611,94.1256361 52.7474895,104.307456 C52.156318,114.489275 40.9989958,164.84058 40.9989958,164.84058 C51.3819665,174.830918 84.8789121,173.657053 84.8789121,173.657053 C82.9805021,170.202061 82.3810042,163.275427 82.3810042,156.615201 C82.331046,148.173366 83.1220502,140.156119 83.1220502,140.156119 C97.51,143.29475 109.766402,137.217295 111.731423,111.167488 C113.696444,85.1176812 97.0270711,56.9033011 97.0270711,56.9033011 Z" id="Path" fill="#FF7977"></path>
                        <path d="M88.0595816,55.3381481 C98.1927615,45.0647504 110.599038,11.0559742 96.7439749,1.82323671 C94.7259242,0.873591791 92.4757531,0.529458507 90.2660669,0.83252818 C73.8131799,2.88887279 72.7807113,2.88887279 69.5500837,15.3767955 C66.3194561,27.8647182 66.0197071,19.0482448 60.7324686,17.1417552 C55.4452301,15.2352657 53.6800418,13.1705958 51.3320084,23.752029 C48.9839749,34.3334622 5.77849372,44.1739452 4.16317992,55.0467633 C2.54786611,65.9195813 6.81096234,71.0562802 6.81096234,71.0562802 C6.81096234,71.0562802 -9.65025105,80.9050886 8.71769874,92.2108213 C27.0856485,103.516554 49.7250209,123.014364 49.7250209,123.014364 C49.7250209,123.014364 68.3760669,111.433897 69.9913808,98.0385185 C69.9913808,98.0385185 57.2104184,90.104525 60.5825941,79.972657 C63.9547699,69.840789 74.8373222,69.099839 77.7765272,76.5925926 C79.7415481,81.5877617 81.8980753,84.493285 83.2053138,83.9105153 C83.2053138,83.960467 77.9264017,65.6198712 88.0595816,55.3381481 Z" id="Path" fill="#0A1658"></path>
                        <path d="M84.3876569,80.3139936 C84.6874059,73.7037198 86.3027197,70.3236554 93.3551464,67.9759259 C100.407573,65.6281965 109.366736,51.2254589 109.957908,39.6200161 C110.45749,29.721256 107.751423,7.03486312 96.7439749,1.82323671 C110.599038,11.0559742 98.1927615,45.0647504 88.0595816,55.3381481 C77.9264017,65.6115459 83.2053138,83.960467 83.2053138,83.960467 C83.8547699,83.6607568 84.2960669,82.511868 84.3876569,80.3139936 Z" id="Path" fill="#303D8B"></path>
                    </g>
                    <g id="body" transform="translate(78.267782, 162.342995)">
                        <path d="M269.008033,110.642995 C250.390293,79.323285 218.142301,27.681562 204.728536,21.9870692 C185.336444,13.7616908 116.569038,1.71500805 110.107782,1.42362319 C110.107782,1.42362319 51.623431,-4.75373591 29.8749791,14.0530757 C8.1265272,32.8598873 4.60447699,197.409082 4.60447699,222.085217 C4.60447699,228.537311 2.8392887,241.583027 0.183179916,258.300193 C0.183179916,258.300193 118.41749,285.515539 171.040084,292.983317 C170.981799,292.150789 170.948494,291.493092 170.931841,291.14343 C170.640418,281.98562 196.010837,160.777842 196.010837,160.777842 C202.082586,166.200969 208.445007,171.28969 215.069874,176.021433 C215.069874,176.021433 248.550167,127.693172 269.008033,110.642995 Z" id="Path" fill="#FFFFFF"></path>
                        <path d="M196.010837,160.777842 C196.010837,160.777842 169.491381,124.53789 169.366485,94.7583575 C169.366485,94.7583575 164.820293,154.700386 169.366485,173.507198 C173.912678,192.31401 186.951757,204.951787 186.951757,204.951787 L196.010837,160.777842 Z" id="Path" fill="#C9E2F4"></path>
                    </g>
                    <g id="right_arm" transform="translate(293.087866, 209.797101)">
                        <path d="M173.288201,9.0579066 C169.622613,4.6130735 164.440725,1.68288319 158.74205,0.83252818 C149.483138,-0.341336554 140.515649,-0.199806763 136.111004,5.67784219 C131.70636,11.5554911 135.086862,35.066087 134.204268,38.5876812 C133.321674,42.1092754 68.076318,87.0741224 68.076318,87.0741224 C68.076318,87.0741224 62.4893305,77.1503865 54.1879498,63.1888889 C40.124728,74.9108857 19.9,101.418583 8.64276151,116.837005 C8.64276151,116.837005 41.2238075,159.628953 73.4634728,138.482738 C111.764728,113.082303 160.415649,50.9840258 162.855272,48.4364895 C165.936025,45.1979549 168.14251,35.6488567 167.118368,29.0385829 C166.094226,22.4283092 169.616276,8.61666667 169.616276,8.61666667 L173.288201,9.0579066 Z" id="Path" fill="#FF7977"></path>
                        <path d="M8.64276151,116.837005 C3.52205021,123.846892 0.249790795,128.567327 0.249790795,128.567327 C13.5719665,138.133076 31.6068619,148.739485 46.2362762,149.172399 C53.8715481,149.388857 63.3053138,145.226216 73.4634728,138.482738 C41.2238075,159.628953 8.64276151,116.837005 8.64276151,116.837005 Z" id="Path" fill="#F45658"></path>
                        <polygon id="Path" fill="#F45658" points="68.076318 87.0741224 70.3327615 90.7955233 103.887992 61.9567472"></polygon>
                    </g>
                    <g id="pants" transform="translate(10.824268, 420.426731)">
                        <path d="M177.884351,496.295024 C177.651925,496.295708 177.420141,496.270578 177.193264,496.220097 C177.334812,502.197649 177.409749,506.093881 177.451381,507.40095 C177.432148,510.577294 177.192887,513.748491 176.735314,516.891771 L211.539498,518.76496 C211.539498,518.76496 212.896695,510.439678 215.111506,496.794541 C214.742136,496.908547 214.357346,496.964714 213.970795,496.961047 L177.884351,496.295024 Z" id="Path" fill="#FF7977"></path>
                        <path d="M7.01912134,485.455507 C6.46503716,485.392986 5.92651746,485.232296 5.42878661,484.980966 C4.11322176,491.216602 2.48958159,499.458631 0.774351464,508.208502 L39.1338912,509.873559 C40.9240586,506.443543 43.5968201,499.483607 46.927364,489.842931 L7.01912134,485.455507 Z" id="Path" fill="#F45658"></path>
                        <path d="M238.483598,34.8995813 C185.885983,27.4068277 67.6266946,0.216457327 67.6266946,0.216457327 C60.1329707,47.4790821 45.5701674,124.179903 43.8382845,164.990435 C41.7483682,213.959742 17.4853556,408.771337 9.00079498,465.283349 L8.27640167,465.191771 C6.97331579,465.017826 5.65810897,465.41014 4.66333261,466.269516 C3.66855626,467.128891 3.08944466,468.373057 3.07242678,469.687424 L2.9225523,480.818325 C2.89845558,482.567198 3.86579817,484.179227 5.42046025,484.980966 C5.9181911,485.232296 6.4567108,485.392986 7.01079498,485.455507 C2.53121339,475.948035 16.7942678,467.639404 16.7942678,467.639404 C17.6269038,426.404283 105.736444,233.54913 101.03205,202.987021 C96.3276569,172.424911 115.528243,101.518486 115.528243,101.518486 C115.528243,101.518486 116.710586,121.890451 120.623975,131.298019 C124.537364,140.705588 138.450711,178.502367 138.450711,178.502367 C167.176653,234.514863 174.712008,409.187601 176.751967,478.820258 C174.768977,479.034765 173.315733,480.786546 173.471381,482.774767 L174.254059,492.873333 C174.389629,494.513954 175.589406,495.869459 177.20159,496.203446 C177.428468,496.253927 177.660251,496.279057 177.892678,496.278374 L213.979121,496.944396 C214.365672,496.948063 214.750463,496.891897 215.119833,496.77789 C216.411458,496.390317 217.390498,495.331688 217.676025,494.013897 L219.63272,484.856087 C219.989135,483.217794 219.195527,481.545276 217.701004,480.785024 C227.193054,421.908631 244.736695,311.490419 248.966485,274.15153 C254.603431,224.349694 239.907406,56.0790982 238.483598,34.8995813 Z" id="Path" fill="#303D8B"></path>
                        <path d="M115.536569,101.518486 C115.536569,101.518486 96.3443096,172.433237 101.040377,202.987021 C105.736444,233.540805 17.6352301,426.404283 16.8025941,467.639404 C16.8025941,467.639404 2.53953975,475.964686 7.01912134,485.455507 L46.927364,489.834605 L48.0930544,489.959485 C50.2823284,490.20212 52.3359708,488.857647 52.988954,486.754251 L56.0364017,476.96372 C56.7774534,474.580002 55.479911,472.040697 53.1138494,471.244251 C81.9480335,382.063833 138.459038,178.502367 138.459038,178.502367 C138.459038,178.502367 124.554017,140.697262 120.632301,131.298019 C116.710586,121.898776 115.536569,101.518486 115.536569,101.518486 Z" id="Path" fill="#0A1658"></path>
                        <path d="M179.016736,479.244847 L214.137322,480.568567" id="Path" stroke="#C9E2F3" stroke-width="2" stroke-linecap="round"></path>
                        <path d="M201.939205,473.816763 C201.939205,473.816763 225.444519,305.437939 223.687657,256.660113 C221.930795,207.882287 211.314686,30.4205797 211.314686,30.4205797" id="Path" stroke="#C9E2F3" stroke-width="2" stroke-linecap="round"></path>
                        <path d="M11.0657322,466.165829 L48.6842259,470.278519" id="Path" stroke="#050D2D" stroke-width="2" stroke-linecap="round"></path>
                    </g>
                    <g id="shoes" transform="translate(0.000000, 928.268921)">
                        <path d="M290.065397,60.916087 C273.912259,46.3052174 222.363766,10.9227697 222.363766,10.9227697 L187.559582,9.04958132 C185.736109,23.3773913 180.990084,46.3801449 178.991757,57.3362158 C193.379707,58.5017552 278.516736,65.2618841 290.065397,60.916087 Z" id="Path" fill="#303D8B"></path>
                        <path d="M178.084184,63.4219968 C178.475523,65.7697262 294.853054,72.4299517 294.853054,66.5523027 C294.853054,65.6365217 293.071213,63.6301288 290.065397,60.916087 C278.516736,65.2618841 193.379707,58.5017552 178.991757,57.3195652 C178.541632,59.3290122 178.238307,61.3685388 178.084184,63.4219968 Z" id="Path" fill="#C8E1F3"></path>
                        <path d="M238.883264,22.4782609 C238.883264,22.4782609 234.720084,23.4023671 232.846653,26.7324799" id="Path" stroke="#C9E2F3" stroke-width="2" stroke-linecap="round"></path>
                        <path d="M244.894895,26.6908535 C244.894895,26.6908535 240.681757,28.1561031 239.507741,31.1948309" id="Path" stroke="#C9E2F3" stroke-width="2" stroke-linecap="round"></path>
                        <path d="M249.940669,30.2790499 C249.940669,30.2790499 246.660084,32.2854428 246.068912,35.7071337" id="Path" stroke="#C9E2F3" stroke-width="2" stroke-linecap="round"></path>
                        <path d="M96.7772803,51.375314 C84.2877406,36.7727697 49.958159,2.02304348 49.958159,2.02304348 L11.5986192,0.357987118 C8.35966527,17.0085507 4.8292887,35.4157488 2.54786611,45.5226409 C13.3721339,46.7631079 65.969749,52.4909018 96.7772803,51.375314 Z" id="Path" fill="#0A1658"></path>
                        <path d="M101.290167,57.5443478 C101.290167,56.8949758 99.5749372,54.6388245 96.7772803,51.375314 C65.969749,52.4909018 13.3721339,46.7631079 2.54786611,45.5476167 C2.06040456,48.0252871 1.4066954,50.4673396 0.591171548,52.8572142 C-1.76518828,57.9356361 101.290167,61.065942 101.290167,57.5443478 Z" id="Path" fill="#C8E1F3"></path>
                        <path d="M60.9989121,13.3204509 C62.6381278,15.1148175 62.8895439,17.7781235 61.6150628,19.8474718" id="Path" stroke="#C9E2F3" stroke-width="2" stroke-linecap="round"></path>
                        <path d="M67.2936402,23.0693559 C67.2936402,23.0693559 68.9589121,18.4404992 64.9539331,17.3748631" id="Path" stroke="#C9E2F3" stroke-width="2" stroke-linecap="round"></path>
                        <path d="M71.4068619,26.6908535 C71.4068619,26.6908535 73.6216736,22.3117552 69.233682,21.803913" id="Path" stroke="#C9E2F3" stroke-width="2" stroke-linecap="round"></path>
                    </g>
                </g>
                <g id="plant" transform="translate(946.707113, 676.845411)">
                    <path d="M79.183682,144.660097 C85.4201255,153.443269 105.761423,145.625829 118.492427,139.515072 C123.388326,84.7430435 119.183515,30.9783736 99.3417992,10.872818 C71.3485774,-17.4331401 50.6825523,18.6985829 53.6883682,54.9218841 C54.5959414,65.8446538 58.242887,85.2092593 62.6225523,108.137085 C69.3752301,125.054058 75.7698745,139.864734 79.183682,144.660097 Z" id="Path" fill="#DF7126"></path>
                    <path d="M80.5158996,276.9738 C79.8581172,276.807295 79.2003347,276.624138 78.559205,276.424332 C78.8839331,277.506618 79.5583682,277.648148 80.5158996,276.9738 Z" id="Path" fill="#C54F28"></path>
                    <path d="M118.492427,139.515072 C105.761423,145.625829 85.4201255,153.443269 79.183682,144.660097 C75.7948536,139.881385 69.3752301,125.054058 62.5975732,108.137085 C72.7474059,161.244058 86.8439331,233.474203 79.9164017,264.186167 C78.4176569,270.846393 78.0679498,274.759275 78.559205,276.424332 C79.2003347,276.624138 79.8581172,276.807295 80.5158996,276.9738 C81.8730962,276.016393 83.788159,273.435556 86.0362762,269.5643 C101.256862,243.397939 113.896276,191.00694 118.492427,139.515072 Z" id="Path" fill="#BF6328"></path>
                    <path d="M78.5758577,276.490934 C79.1087448,278.15599 80.5658577,277.440016 82.6058159,274.825878 C119.424979,174.031691 80.432636,17.932657 80.3077406,17.4331401 C80.0515557,16.6268363 79.213953,16.1572801 78.3923232,16.3593661 C77.5706933,16.5614521 77.0465334,17.3659439 77.193682,18.199066 C77.3185774,18.6902576 116.843808,176.912238 78.5758577,276.490934 Z" id="Path" fill="#141444"></path>
                    <path d="M146.285816,188.20132 C155.444812,179.809436 167.742845,162.243092 179.28318,148.556329 C186.776904,125.337118 180.182427,101.593414 155.070126,112.649388 C136.344142,120.891417 119.091925,153.976087 106.952092,191.556409 C109.90795,222.384928 135.77795,197.808696 146.285816,188.20132 Z" id="Path" fill="#FCB614"></path>
                    <path d="M90.3493305,304.3057 C91.8147699,313.979678 94.2377406,315.65306 96.3443096,302.166103 C101.789749,267.383076 162.955188,183.197826 175.561297,157.755765 C177.026751,154.799406 178.270794,151.7384 179.28318,148.597955 C167.742845,162.284718 155.469791,179.851063 146.285816,188.242947 C135.77795,197.850322 109.924603,222.426554 106.952092,191.57306 C93.6882008,232.65 86.5441841,279.113398 90.3493305,304.3057 Z" id="Path" fill="#DFA026"></path>
                    <path d="M93.7797908,311.482093 C92.905523,312.556055 92.0645607,311.606973 91.3401674,309.101063 C93.5716318,225.332077 166.760335,123.19752 166.993473,122.864509 C167.252274,122.500153 167.685822,122.301524 168.130805,122.343445 C168.575788,122.385366 168.964602,122.661468 169.150784,123.067745 C169.336967,123.474022 169.292232,123.948752 169.033431,124.313108 C168.800293,124.646119 94.6207531,228.179324 93.7797908,311.482093 Z" id="Path" fill="#141444"></path>
                    <path d="M48.5676569,109.410853 C44.2879079,100.985668 42.6392887,90.8038486 42.0397908,83.0613366 C38.8249792,79.287913 34.9619495,76.1189471 30.6326778,73.7037198 C1.17401674,58.2020451 -6.15317992,92.2191465 5.39548117,120.325298 C12.3729707,137.292222 36.652636,178.44409 55.511841,216.648808 C61.4735146,206.533591 56.136318,124.313108 48.5676569,109.410853 Z" id="Path" fill="#FCB614"></path>
                    <path d="M85.4284519,283.101208 C95.6948536,237.120676 75.828159,120.958019 42.0397908,83.0613366 C42.6392887,90.8038486 44.2879079,100.985668 48.5676569,109.410853 C56.136318,124.313108 61.4735146,206.533591 55.511841,216.640483 C67.8848117,241.699581 77.9264017,265.501562 79.2003347,280.370515 C80.4492887,294.914783 83.1553556,293.316329 85.4284519,283.101208 Z" id="Path" fill="#DFA026"></path>
                    <path d="M81.2402929,290.552335 C82.0729289,291.759501 83.0637657,290.802093 84.0212971,288.187955 C87.8764017,198.607923 17.3687866,84.1269726 17.1439749,83.7606602 C16.7460568,83.1615919 15.9462209,82.9832628 15.3314539,83.3565456 C14.7166869,83.7298285 14.506094,84.5216841 14.8542259,85.1509823 C15.0790377,85.4839936 86.5941423,201.521771 81.2402929,290.552335 Z" id="Path" fill="#141444"></path>
                    <polygon id="Path" stroke="#141444" fill="#2F3E8A" points="154.387364 269.214638 151.947741 281.119791 141.56477 332.336924 46.094728 332.336924 35.703431 281.119791 33.2638075 269.214638"></polygon>
                    <polygon id="Path" fill="#141444" opacity="0.68" points="153.396527 274.051626 110.191046 274.051626 46.094728 332.336924 141.56477 332.336924"></polygon>
                    <rect id="Rectangle" stroke="#141444" fill="#2F3E8A" x="22.2646862" y="253.596409" width="139.449874" height="20.4552174"></rect>
                </g>
            </g>
        </g>
    </g>
</svg>